/* XPM */
static char *bitcoin32[] = {
"32 32 115 2 0 0",
"   c #E31E24",
"!  c #D41F24",
"#  c #862427",
"$  c #412928",
"%  c #2D2A29",
"&  c #512728",
"'  c #6F2627",
"(  c #492828",
")  c #2B2A29",
"*  c #DC1E24",
"+  c #342929",
",  c #392929",
"-  c #892426",
".  c #D11F24",
"/  c #BD2025",
"0  c #452828",
"1  c #2C2A29",
"2  c #752527",
"3  c #D71F24",
"4  c #A62226",
"5  c #312A29",
"6  c #332929",
"7  c #A82226",
"8  c #3A2929",
"9  c #352929",
":  c #BA2125",
";  c #6E2627",
"<  c #9D2326",
"=  c #582728",
">  c #C42025",
"?  c #332A29",
"@  c #2E2A29",
"A  c #B22125",
"B  c #DA1F24",
"C  c #642627",
"D  c #5A2728",
"E  c #502828",
"F  c #E21E24",
"G  c #702527",
"H  c #372929",
"I  c #CD1F25",
"J  c #3F2928",
"K  c #4B2828",
"L  c #E01E24",
"M  c #2F2A29",
"N  c #AE2125",
"O  c #DF1E24",
"P  c #552728",
"Q  c #C12025",
"R  c #DE1E24",
"S  c #9F2226",
"T  c #432828",
"U  c #422828",
"V  c #B72125",
"W  c #522728",
"X  c #C92025",
"Y  c #772527",
"Z  c #622628",
"[  c #8C2426",
"]  c #CB2025",
"^  c #B82125",
"_  c #992326",
"`  c #382929",
"a  c #942326",
"b  c #6D2627",
"c  c #9B2326",
"d  c #B92125",
"e  c #7B2527",
"f  c #872426",
"g  c #A32226",
"h  c #CC1F25",
"i  c #D31F24",
"j  c #E11E24",
"k  c #DD1E24",
"l  c #562728",
"m  c #C52025",
"n  c #662627",
"o  c #AA2226",
"p  c #542728",
"q  c #D61F24",
"r  c #3E2928",
"s  c #6A2627",
"t  c #7F2527",
"u  c #962326",
"v  c #B62125",
"w  c #AB2225",
"x  c #442828",
"y  c #4D2828",
"z  c #512828",
"{  c #7F2427",
"|  c #D51F24",
"}  c #C22025",
"~  c #C02025",
" ! c #822427",
"!! c #612628",
"#! c #B32125",
"$! c #BB2125",
"%! c #CF1F25",
"&! c #402928",
"'! c #4E2828",
"(! c #742527",
")! c #D81F24",
"*! c #CC2025",
"+! c #C72025",
",! c #D21F24",
"-! c #322A29",
".! c #912326",
"/! c #782527",
"0! c #4A2828",
"1! c #B52125",
"2! c #622627",
"3! c #632627",
"4! c #6C2627",
"5! c #5E2728",
"6! c None",
"6!6!6!6!6!6!6!6!6!6!6!6!6!6!6!6!6!6!6!6!6!6!6!6!6!6!6!6!6!6!6!6!",
"6!6!6!6!6!6!6!6!6!6!6!6!6!  ! # $ % & ' ( ) ) ) 6!6!6!6!6!6!6!6!",
"6!6!6!6!6!6!) 6!6!6!    * # + , - .         6!6!) 6!6!6!6!6!6!6!",
"6!6!6!6!6!6!) 6!6!    / 0 1 2 3                 6!) 6!6!6!6!6!6!",
"6!6!6!6!6!6!6!      4 5 6 7                       8 ) 6!6!6!6!6!",
"6!6!6!6!6!6!-     7 % 9 :                         ; ) 6!6!6!6!6!",
"6!6!6!6!6!< =   > ? @ A                         B 8 C 6!6!6!6!6!",
"6!6!6!6!6!  D 7 E ) -                         F G H ! 6!6!6!6!6!",
"6!6!6!6!    I J ) K L                       * G M N     6!6!6!6!",
"6!6!6!6!    O J ) P Q                   R S T U V       6!6!6!6!",
"6!6!6!6!    7 ) W X Y Z [ A X . ] ^ _ ; ` K a *         6!6!6!6!",
"6!6!6!      b ) c     L d a e ; b 2 f g h                 6!6!6!",
"6!6!6!      T 1 i                                         6!6!6!",
"6!6!6!    j % U                                           6!6!6!",
"6!6!6!    k ) l                           m n o           6!6!6!",
"6!6!6!      6 p                         q r ) s           6!6!6!",
"6!6!6!      = 8 F                       t ) ) -           6!6!6!",
"6!6!6!6!    u ) v                     w x y ) d         6!6!6!6!",
"6!6!6!6!    k 0 z k               B { b | r $ F         6!6!6!6!",
"6!6!6!6!6!    } 8 P ~       F }  !!!#!  $!) [         6!6!6!6!6!",
"6!6!6!6!6!      %!' + &!l & '!2 ^       (!` )!        6!6!6!6!6!",
"6!6!6!6!6!6!        j *!+!3           ,!-!.!        6!6!6!6!6!6!",
"6!6!6!6!6!6!6!                        /!0!O       6!6!6!6!6!6!6!",
"6!6!6!6!6!6!6!6!                  F ~ M 1!      6!6!6!6!6!6!6!6!",
"6!6!6!6!6!6!6!6!6!R / u /!2!!!3!C 2!1 W 4!s ( , ) 6!6!6!6!6!6!6!",
"6!6!6!6!6!6!6!6!) ) ) l $!R       Y E B 6!6!6!6!6!6!6!6!6!6!6!6!",
"6!6!6!6!6!6!) ) 6!6!6!6!6!6!6!6!5!) 6!6!6!6!6!6!6!6!6!6!6!6!6!6!",
"6!6!6!6!6!) ) 6!6!6!6!6!6!6!6!) ) 6!6!6!6!6!6!6!6!6!6!6!6!6!6!6!",
"6!6!6!6!) 6!6!6!6!6!6!6!6!6!) 6!6!6!6!6!6!6!6!6!6!6!6!6!6!6!6!6!",
"6!6!6!) ) 6!6!6!6!6!6!6!) ) 6!6!6!6!6!6!6!6!6!6!6!6!6!6!6!6!6!6!",
"6!6!6!6!) ) 6!6!) ) ) 6!6!6!6!6!6!6!6!6!6!6!6!6!6!6!6!6!6!6!6!6!",
"6!6!6!6!6!6!6!6!6!6!6!6!6!6!6!6!6!6!6!6!6!6!6!6!6!6!6!6!6!6!6!6!"
};
